<svg xmlns="http://www.w3.org/2000/svg" width="288.482" height="60" viewBox="0 0 288.482 60"><g fill="#FFF"><path d="M198.166 32.767c0 .737-.047 2.97 2.836 2.97 1.822 0 2.97-.866 2.97-2.187 0-1.387-.978-1.624-2.97-2.104-3.73-.93-5.764-2.035-5.764-4.742 0-2.58 1.844-4.853 6.195-4.853 1.627 0 3.553.37 4.723 1.84.887 1.126.887 2.384.887 2.906h-3.225c-.043-.54-.22-2.382-2.535-2.382-1.56 0-2.574.844-2.574 2.12 0 1.454 1.144 1.71 3.397 2.277 2.707.647 5.37 1.384 5.37 4.44 0 2.814-2.34 5.092-6.67 5.092-6 0-6.044-3.858-6.065-5.377h3.424zM216.27 37.62c-1.036.282-1.97.346-2.49.346-3.228 0-3.228-2.033-3.228-2.945v-5.997h-2.1v-2.12h2.1v-2.15l3.186-1.17v3.32h2.598v2.12h-2.598v4.938c.02.997.02 1.627 1.45 1.627.476 0 .694-.023 1.083-.066v2.1zM221.078 26.835v6.52c0 .954 0 2.404 1.71 2.404 2.06 0 2.06-1.54 2.06-3.4v-5.524h3.293v7.212c.044 2.36.065 2.645.065 2.925.02.303.045.498.086.8h-3.118l-.105-1.45c-.324.475-1.148 1.732-3.23 1.732-1.474 0-2.683-.67-3.292-1.47-.713-.893-.713-2.407-.713-2.946v-6.804h3.246zM237.604 37.62c-1.037.282-1.97.346-2.486.346-3.23 0-3.23-2.033-3.23-2.945v-5.997h-2.102v-2.12h2.102v-2.15l3.182-1.17v3.32h2.602v2.12h-2.602v4.938c.027.997.027 1.627 1.455 1.627.475 0 .693-.023 1.08-.066v2.1zM246.238 37.62c-1.04.282-1.97.346-2.492.346-3.227 0-3.227-2.033-3.227-2.945v-5.997h-2.1v-2.12h2.1v-2.15l3.187-1.17v3.32h2.596v2.12h-2.596v4.938c.02.997.02 1.627 1.45 1.627.478 0 .692-.023 1.08-.066v2.1zM258.605 26.878c-.084.863-.152 1.604-.152 2.707v8.078c0 4.032-3.357 4.42-5.455 4.42-1.56 0-4.613-.195-4.81-3.51h3.075c.04.325.195 1.516 1.904 1.516.953 0 1.777-.456 1.996-1.43.127-.542.127-.93.15-2.6-1.02 1.346-2.166 1.494-2.945 1.494-3.14 0-4.613-2.73-4.613-5.37 0-2.773 1.537-5.415 4.678-5.415 1.992 0 2.73 1.078 3.053 1.56l.11-1.452h3.01zm-5.5 8.49c2.25 0 2.25-2.642 2.25-3.118 0-1.235-.237-3.337-2.187-3.337-1.213 0-2.21.93-2.21 3.27 0 .544 0 3.184 2.146 3.184zM267.596 37.772c-.11-.674-.11-1.17-.11-1.494-1.21 1.754-2.663 1.754-3.27 1.754-1.58 0-2.295-.454-2.73-.867-.648-.65-.95-1.536-.95-2.402 0-.87.302-2.47 2.32-3.4 1.34-.608 3.267-.608 4.33-.608 0-.715-.022-1.062-.15-1.45-.282-.804-1.13-.912-1.43-.912-.46 0-.935.197-1.214.61-.242.366-.242.713-.242.975h-3.14c.022-.59.09-1.755 1.235-2.58.996-.714 2.275-.89 3.314-.89.91 0 2.815.153 3.895 1.41.738.89.762 2.186.762 2.686l.02 4.397c0 .934.066 1.863.262 2.773h-2.904zm-3.942-3.378c0 .736.494 1.562 1.56 1.562.583 0 1.06-.284 1.362-.63.562-.693.61-1.54.61-2.71-2.06-.174-3.532.478-3.532 1.778zM273.074 29.52c0-.52-.086-2.1-.154-2.728h3.014l.064 2.102c.41-.936 1.127-2.124 3.727-1.992v2.12c-3.25-.303-3.445 1.993-3.445 3.358v5.393h-3.205V29.52zM288.414 37.62c-1.037.282-1.973.346-2.49.346-3.23 0-3.23-2.033-3.23-2.945v-5.997h-2.097v-2.12h2.098v-2.15l3.186-1.17v3.32h2.603v2.12h-2.602v4.938c.022.997.022 1.627 1.452 1.627.477 0 .695-.023 1.082-.066v2.1z"/><g><path d="M79.538 22.155v9.53c0 1.712.13 3.856 3.402 3.856.542 0 2.166-.02 3.032-1.364.325-.478.5-1.083.5-2.664v-9.357h3.268v9.77c0 4.658-3.704 6.152-6.867 6.152-1.56 0-4.416-.347-5.89-2.71-.757-1.19-.8-2.4-.8-3.854v-9.357h3.355zM92.338 28.785c0-.044 0-1.234-.063-1.993h3.073l.087 1.646c.306-.497 1.172-1.908 3.555-1.908 2.145 0 3.053 1.3 3.334 2.06.237.67.302 1.234.302 3.27v5.913h-3.27v-6.8c0-.457 0-.85-.173-1.195-.238-.474-.736-.93-1.56-.93-.69 0-1.32.327-1.667.845-.197.284-.39.823-.39 1.67v6.41h-3.23v-8.988zM105.518 26.812h3.207v10.96h-3.207v-10.96zM113.716 26.835l2.47 7.427 2.512-7.427h3.098l-3.943 10.938h-3.55l-4.01-10.938h3.423zM125.738 33.116c0 .713 0 2.924 2.23 2.924.8 0 1.603-.303 1.907-1.518h2.924c-.044.52-.153 1.45-1.04 2.383-.804.845-2.23 1.277-3.833 1.277-.933 0-2.71-.172-3.858-1.363-.997-1.04-1.41-2.512-1.41-4.267 0-1.78.435-3.9 2.273-5.18.846-.56 1.885-.91 3.076-.91 1.56 0 3.42.607 4.418 2.643.735 1.496.696 3.1.65 4.01h-7.34zm4.07-2.014c0-.5-.04-2.45-1.905-2.45-1.407 0-1.993 1.173-2.057 2.45h3.963zM135.2 29.52c0-.52-.085-2.1-.15-2.728h3.012l.06 2.102c.418-.936 1.13-2.254 3.73-2.124v2.88c-3.25-.302-3.444 1.365-3.444 2.73v5.393h-3.21V29.52zM145.86 34.61c.042.694.474 1.492 1.817 1.492 1.148 0 1.688-.646 1.688-1.3 0-.494-.258-.885-1.512-1.23l-1.994-.545c-.89-.26-2.772-.802-2.772-3.032 0-2.12 1.95-3.42 4.785-3.42 2.254 0 4.07 1.04 4.158 3.225h-2.923c-.088-1.21-1.06-1.3-1.562-1.3-.863 0-1.512.413-1.512 1.085 0 .735.54.888 1.492 1.148l1.97.543c1.993.54 2.927 1.557 2.927 3.052 0 1.887-1.625 3.77-5.025 3.77-1.408 0-2.752-.305-3.75-1.347-.71-.754-.777-1.62-.8-2.14h3.012zM154.426 26.812h3.205v10.96h-3.204v-10.96zM166.908 37.62c-1.035.282-1.965.346-2.488.346-3.227 0-3.227-2.033-3.227-2.945v-5.997h-2.102v-2.12h2.103v-3.32l3.182-.583v3.9h2.604v2.122h-2.605v4.938c.025.996.025 1.626 1.453 1.626.477 0 .693-.023 1.08-.066v2.1zM175.47 37.772c-.112-.674-.112-1.17-.112-1.494-1.21 1.754-2.664 1.754-3.27 1.754-1.58 0-2.298-.454-2.728-.867-.648-.65-.955-1.536-.955-2.402 0-.87.307-2.47 2.32-3.4 1.342-.608 3.268-.608 4.33-.608 0-.715-.02-1.062-.152-1.45-.283-.804-1.127-.912-1.426-.912-.455 0-.936.197-1.215.61-.236.366-.236.713-.236.975h-3.143c.02-.59.086-1.755 1.232-2.58.996-.714 2.275-.89 3.312-.89.912 0 2.816.153 3.902 1.41.733.89.757 2.186.757 2.686L178.11 35c0 .933.063 1.862.26 2.772h-2.9zm-3.947-3.378c0 .736.502 1.562 1.56 1.562.585 0 1.063-.284 1.364-.63.566-.693.607-1.54.607-2.71-2.058-.174-3.53.478-3.53 1.778zM187.377 37.62c-1.04.282-1.97.346-2.49.346-3.227 0-3.227-2.033-3.227-2.945v-5.997h-2.1v-2.12h2.1v-2.15l3.182-1.17v3.32h2.602v2.12h-2.602v4.938c.025.997.025 1.627 1.453 1.627.477 0 .693-.023 1.082-.066v2.1z"/><circle cx="171.418" cy="23.672" r="1.727"/><circle cx="175.684" cy="23.672" r="1.727"/><path d="M157.828 23.668c0 .956-.77 1.728-1.725 1.728-.955 0-1.727-.77-1.727-1.728 0-.95.77-1.723 1.727-1.723.954 0 1.725.774 1.725 1.723zM108.847 23.668c0 .956-.772 1.728-1.726 1.728s-1.726-.77-1.726-1.728c0-.95.773-1.723 1.727-1.723s1.727.774 1.727 1.723z"/></g><g><circle cx="29.969" cy="30.03" r="1.625"/><path d="M34.065 27.503c0-.897-.73-1.627-1.625-1.627s-1.623.73-1.623 1.627c0 .896.728 1.623 1.623 1.623s1.625-.728 1.625-1.623z"/><circle cx="32.441" cy="32.56" r="1.624"/><circle cx="35.239" cy="29.949" r="1.625"/><path d="M38.293 25.774c-.894 0-1.624.73-1.624 1.625s.73 1.623 1.623 1.623c.896 0 1.626-.728 1.626-1.624 0-.896-.73-1.626-1.627-1.626z"/><circle cx="38.27" cy="32.616" r="1.625"/><path d="M35.13 36.766c.895 0 1.625-.728 1.625-1.624s-.73-1.626-1.626-1.626c-.896 0-1.625.73-1.625 1.626s.73 1.624 1.624 1.624zM34.22 38.29c0-.897-.73-1.627-1.626-1.627-.894 0-1.623.73-1.623 1.626s.73 1.623 1.624 1.623c.897 0 1.626-.728 1.626-1.624zM30.065 43.362c.896 0 1.626-.73 1.626-1.624 0-.897-.73-1.626-1.625-1.626-.897 0-1.623.73-1.623 1.626 0 .895.726 1.624 1.623 1.624z"/><circle cx="41.727" cy="29.955" r="1.624"/><circle cx="41.558" cy="35.382" r="1.625"/><path d="M45.356 31.312c-.895 0-1.624.73-1.624 1.625s.73 1.625 1.624 1.625c.896 0 1.626-.73 1.626-1.625s-.73-1.625-1.626-1.625zM46.542 38.438c0-.896-.73-1.626-1.626-1.626-.893 0-1.623.73-1.623 1.626 0 .895.73 1.624 1.623 1.624.896 0 1.626-.73 1.626-1.624zM42.61 40.874c0-.897-.73-1.627-1.628-1.627-.896 0-1.623.73-1.623 1.627 0 .896.727 1.623 1.622 1.623.897 0 1.627-.727 1.627-1.623zM35.38 43.148c.897 0 1.627-.727 1.627-1.622 0-.897-.73-1.628-1.626-1.628-.893 0-1.622.73-1.622 1.628 0 .896.73 1.622 1.623 1.622zM32.837 46.95c.896 0 1.626-.73 1.626-1.622 0-.897-.73-1.626-1.626-1.626-.894 0-1.623.73-1.623 1.626 0 .894.73 1.62 1.623 1.62zM30.045 50.983c.896 0 1.625-.73 1.625-1.624s-.73-1.627-1.625-1.627-1.623.73-1.623 1.626.73 1.623 1.623 1.623zM39.565 37.917c0-.897-.73-1.628-1.626-1.628-.897 0-1.625.73-1.625 1.627 0 .893.728 1.622 1.624 1.622.896 0 1.625-.73 1.625-1.623z"/><circle cx="49.162" cy="35.908" r="1.624"/><circle cx="48.557" cy="41.761" r="1.625"/><path d="M52.555 43.63c-.895 0-1.623.73-1.623 1.627 0 .895.728 1.622 1.623 1.622.896 0 1.627-.73 1.627-1.623 0-.898-.73-1.628-1.627-1.628zM47.626 45.917c-.894 0-1.623.73-1.623 1.626 0 .895.73 1.622 1.623 1.622.897 0 1.627-.728 1.627-1.622 0-.896-.73-1.626-1.627-1.626zM45.854 44.204c0-.896-.73-1.625-1.627-1.625s-1.623.728-1.623 1.624c0 .895.727 1.624 1.623 1.624s1.627-.73 1.627-1.624zM41.81 50.152c.896 0 1.626-.728 1.626-1.622 0-.896-.73-1.627-1.626-1.627-.894 0-1.623.73-1.623 1.627 0 .895.73 1.622 1.623 1.622zM35.91 50.763c.898 0 1.628-.728 1.628-1.622 0-.896-.73-1.625-1.627-1.625-.892 0-1.622.73-1.622 1.626 0 .895.73 1.623 1.623 1.623zM40.078 44.92c0-.897-.73-1.627-1.626-1.627-.895 0-1.624.73-1.624 1.626 0 .894.73 1.62 1.624 1.62.896 0 1.626-.727 1.626-1.62z"/><circle cx="51.411" cy="51.344" r="1.625"/><circle cx="45.244" cy="52.517" r="1.624"/><path d="M42.582 55.622c-.895 0-1.623.73-1.623 1.627 0 .894.727 1.622 1.622 1.622.896 0 1.625-.73 1.625-1.623 0-.898-.728-1.628-1.625-1.628z"/><circle cx="39.111" cy="53.182" r="1.624"/><path d="M36.292 56.438c-.894 0-1.624.73-1.624 1.626 0 .895.73 1.623 1.624 1.623.896 0 1.625-.73 1.625-1.623 0-.897-.728-1.626-1.625-1.626z"/><circle cx="32.986" cy="53.589" r="1.625"/><circle cx="30.071" cy="58.375" r="1.625"/><circle cx="26.953" cy="53.588" r="1.624"/><path d="M23.69 56.454c-.895 0-1.625.73-1.625 1.627s.73 1.624 1.624 1.624c.896 0 1.625-.728 1.625-1.623 0-.896-.73-1.626-1.626-1.626z"/><circle cx="17.567" cy="57.243" r="1.625"/><path d="M53.23 37.466c-.897 0-1.624.73-1.624 1.627 0 .895.727 1.623 1.623 1.623s1.624-.73 1.624-1.623c0-.898-.728-1.627-1.625-1.627zM57.293 40.815c-.893 0-1.622.73-1.622 1.626 0 .897.73 1.625 1.623 1.625.896 0 1.626-.73 1.626-1.624 0-.896-.73-1.625-1.627-1.625zM58.114 34.644c-.896 0-1.623.73-1.623 1.627 0 .896.728 1.624 1.624 1.624.897 0 1.627-.73 1.627-1.623 0-.896-.73-1.626-1.626-1.626zM53.6 31.42c-.895 0-1.623.73-1.623 1.627 0 .895.73 1.624 1.623 1.624.897 0 1.627-.728 1.627-1.623 0-.898-.73-1.626-1.627-1.626z"/><circle cx="58.387" cy="29.972" r="1.625"/><circle cx="53.599" cy="27.035" r="1.625"/><circle cx="58.094" cy="23.696" r="1.624"/><path d="M51.575 20.894c0 .896.73 1.623 1.623 1.623.896 0 1.626-.728 1.626-1.623 0-.896-.73-1.625-1.626-1.625-.895 0-1.623.727-1.623 1.624zM57.29 19.07c.897 0 1.627-.727 1.627-1.62 0-.898-.73-1.626-1.626-1.626-.893 0-1.623.728-1.623 1.625 0 .894.73 1.62 1.624 1.62z"/><circle cx="52.546" cy="14.792" r="1.624"/><path d="M51.398 10.334c.897 0 1.626-.727 1.626-1.623 0-.895-.73-1.623-1.626-1.623-.894 0-1.622.728-1.622 1.624 0 .897.728 1.624 1.622 1.624z"/><circle cx="47.659" cy="12.47" r="1.624"/><path d="M44.195 14.194c-.894 0-1.623.73-1.623 1.627 0 .896.73 1.624 1.623 1.624.896 0 1.626-.73 1.626-1.623.002-.895-.728-1.626-1.625-1.626zM39.348 19.13c0 .895.73 1.623 1.624 1.623.896 0 1.626-.73 1.626-1.624 0-.898-.73-1.627-1.626-1.627-.894 0-1.624.728-1.624 1.626z"/><circle cx="38.475" cy="15.103" r="1.625"/><circle cx="35.893" cy="10.904" r="1.624"/><circle cx="32.859" cy="14.662" r="1.625"/><circle cx="27.08" cy="14.697" r="1.624"/><circle cx="24.635" cy="18.511" r="1.625"/><path d="M25.737 21.777c0 .895.73 1.622 1.624 1.622.897 0 1.626-.73 1.626-1.623 0-.897-.73-1.628-1.625-1.628-.893 0-1.623.73-1.623 1.627z"/><circle cx="22.091" cy="22.098" r="1.624"/><circle cx="18.469" cy="24.646" r="1.624"/><path d="M14.663 28.79c.897 0 1.627-.73 1.627-1.623 0-.897-.73-1.627-1.627-1.627-.893 0-1.623.73-1.623 1.627 0 .893.73 1.622 1.623 1.622z"/><circle cx="15.076" cy="21.57" r="1.625"/><circle cx="10.845" cy="24.097" r="1.624"/><path d="M6.39 28.628c.898 0 1.628-.73 1.628-1.623 0-.896-.73-1.627-1.627-1.627-.892 0-1.622.73-1.622 1.627 0 .894.73 1.623 1.623 1.623zM1.9 25.306c.895 0 1.625-.728 1.625-1.62 0-.897-.73-1.627-1.626-1.627-.898 0-1.625.728-1.625 1.625 0 .893.727 1.62 1.624 1.62z"/><circle cx="6.812" cy="20.906" r="1.625"/><path d="M2.74 15.8c-.896 0-1.625.73-1.625 1.627 0 .894.73 1.623 1.625 1.623s1.625-.73 1.625-1.623c0-.897-.73-1.627-1.625-1.627zM7.52 16.423c.896 0 1.625-.728 1.625-1.623 0-.896-.73-1.627-1.625-1.627-.894 0-1.624.73-1.624 1.627 0 .895.73 1.623 1.624 1.623z"/><circle cx="11.457" cy="18.211" r="1.624"/><circle cx="15.848" cy="15.805" r="1.624"/><circle cx="19.025" cy="19.133" r="1.625"/><path d="M10.638 31.573c.897 0 1.625-.73 1.625-1.624s-.728-1.627-1.625-1.627c-.895 0-1.623.73-1.623 1.626s.73 1.623 1.623 1.623z"/><circle cx="30.074" cy="18.32" r="1.625"/><path d="M41.8 9.828c-.896 0-1.625.73-1.625 1.627 0 .895.73 1.623 1.624 1.623.896 0 1.624-.73 1.624-1.623 0-.897-.727-1.627-1.625-1.627z"/><circle cx="45.248" cy="7.455" r="1.624"/><circle cx="39.127" cy="6.813" r="1.624"/><path d="M42.592 4.37c.896 0 1.626-.727 1.626-1.622 0-.896-.73-1.625-1.626-1.625-.894 0-1.624.73-1.624 1.625s.73 1.623 1.624 1.623z"/><circle cx="36.307" cy="1.951" r="1.624"/><circle cx="30.052" cy="1.625" r="1.625"/><circle cx="23.679" cy="1.934" r="1.625"/><path d="M17.56 4.387c.898 0 1.627-.73 1.627-1.624 0-.896-.73-1.626-1.626-1.626-.893 0-1.623.73-1.623 1.626 0 .895.73 1.624 1.624 1.624z"/><circle cx="26.91" cy="6.43" r="1.624"/><path d="M20.887 8.456c.896 0 1.625-.73 1.625-1.623 0-.897-.73-1.627-1.625-1.627-.896 0-1.624.73-1.624 1.627 0 .894.728 1.623 1.624 1.623zM18.22 9.85c-.893 0-1.623.728-1.623 1.624 0 .894.73 1.624 1.624 1.624.898 0 1.627-.73 1.627-1.624 0-.895-.73-1.625-1.626-1.625zM12.348 14.108c.897 0 1.626-.73 1.626-1.623 0-.897-.73-1.626-1.626-1.626-.894 0-1.624.728-1.624 1.625 0 .895.73 1.623 1.624 1.623zM8.914 10.31c.897 0 1.626-.73 1.626-1.623 0-.896-.73-1.626-1.626-1.626-.894 0-1.624.73-1.624 1.627 0 .894.73 1.623 1.624 1.623zM14.8 9.1c.897 0 1.627-.728 1.627-1.622 0-.896-.73-1.626-1.626-1.626-.893 0-1.623.73-1.623 1.626 0 .895.73 1.622 1.624 1.622z"/><circle cx="21.556" cy="15.084" r="1.624"/><circle cx="24.072" cy="10.882" r="1.625"/><circle cx="32.978" cy="6.428" r="1.624"/><circle cx="30.061" cy="10.634" r="1.625"/><circle cx="37.883" cy="22.078" r="1.625"/><path d="M35.164 23.254c-.896 0-1.624.73-1.624 1.626 0 .894.728 1.62 1.624 1.62.896 0 1.626-.727 1.626-1.62 0-.897-.73-1.626-1.626-1.626zM30.994 21.707c0 .895.727 1.622 1.623 1.622s1.625-.73 1.625-1.623c0-.897-.73-1.628-1.625-1.628-.896 0-1.623.73-1.623 1.627zM30.047 23.147c-.894 0-1.623.728-1.623 1.623 0 .896.73 1.624 1.623 1.624.896 0 1.626-.728 1.626-1.624 0-.895-.73-1.623-1.626-1.623zM25.873 27.503c0 .896.73 1.623 1.623 1.623.896 0 1.625-.728 1.625-1.623 0-.897-.73-1.627-1.624-1.627-.894 0-1.623.73-1.623 1.627zM24.898 23.284c-.896 0-1.624.73-1.624 1.627 0 .895.73 1.622 1.624 1.622.895 0 1.625-.728 1.625-1.62 0-.897-.73-1.628-1.625-1.628zM24.75 31.604c.896 0 1.626-.73 1.626-1.623 0-.895-.73-1.625-1.626-1.625-.896 0-1.623.73-1.623 1.626 0 .895.727 1.624 1.623 1.624z"/><circle cx="21.712" cy="27.446" r="1.625"/><circle cx="21.727" cy="32.658" r="1.624"/><path d="M18.292 31.566c.896 0 1.626-.728 1.626-1.622 0-.897-.73-1.627-1.626-1.627-.895 0-1.624.73-1.624 1.627 0 .895.73 1.622 1.624 1.622z"/><circle cx="18.552" cy="35.414" r="1.625"/><path d="M14.666 34.552c.896 0 1.626-.73 1.626-1.623 0-.898-.73-1.628-1.626-1.628-.895 0-1.623.73-1.623 1.627 0 .893.728 1.622 1.623 1.622zM15.118 40.124c.896 0 1.626-.73 1.626-1.624s-.73-1.625-1.626-1.625c-.894 0-1.624.73-1.624 1.625s.73 1.624 1.624 1.624zM11.46 43.437c.898 0 1.628-.73 1.628-1.623 0-.896-.73-1.627-1.627-1.627-.894 0-1.622.73-1.622 1.627 0 .894.728 1.623 1.623 1.623zM8.41 39.126c0-.896-.73-1.626-1.625-1.626s-1.623.73-1.623 1.626c0 .895.728 1.624 1.623 1.624.897 0 1.625-.73 1.625-1.624z"/><circle cx="1.912" cy="36.305" r="1.625"/><path d="M6.39 34.694c.898 0 1.628-.73 1.628-1.624 0-.897-.73-1.626-1.627-1.626-.892 0-1.622.73-1.622 1.626 0 .896.73 1.624 1.623 1.624z"/><circle cx="1.623" cy="29.95" r="1.625"/><path d="M10.85 37.515c.896 0 1.626-.73 1.626-1.624 0-.895-.73-1.624-1.627-1.624-.896 0-1.624.73-1.624 1.625s.73 1.625 1.623 1.625zM2.723 40.81c-.897 0-1.624.73-1.624 1.628 0 .895.726 1.622 1.623 1.622.896 0 1.625-.728 1.625-1.622 0-.898-.73-1.628-1.625-1.628z"/><circle cx="7.468" cy="45.266" r="1.625"/><path d="M29.12 32.56c0-.896-.73-1.626-1.624-1.626-.894 0-1.623.73-1.623 1.626 0 .896.73 1.624 1.623 1.624.895 0 1.625-.728 1.625-1.624zM30.045 36.84c.896 0 1.625-.727 1.625-1.62 0-.898-.73-1.63-1.625-1.63s-1.624.73-1.624 1.63c0 .893.73 1.62 1.625 1.62zM28.972 38.29c0-.897-.73-1.627-1.626-1.627-.894 0-1.624.73-1.624 1.626s.73 1.623 1.624 1.623c.897 0 1.626-.728 1.626-1.624zM24.65 43.148c.897 0 1.626-.727 1.626-1.622 0-.897-.73-1.628-1.626-1.628-.895 0-1.623.73-1.623 1.628 0 .896.728 1.622 1.623 1.622z"/><circle cx="27.109" cy="45.344" r="1.625"/><circle cx="24.096" cy="49.126" r="1.625"/><circle cx="18.182" cy="48.512" r="1.625"/><path d="M15.868 45.817c.896 0 1.626-.73 1.626-1.623 0-.897-.73-1.625-1.626-1.625-.894 0-1.624.727-1.624 1.624 0 .895.73 1.623 1.624 1.623zM21.55 46.526c.896 0 1.625-.73 1.625-1.624s-.73-1.626-1.626-1.626c-.896 0-1.624.73-1.624 1.626s.728 1.624 1.623 1.624zM20.662 40.86c0-.898-.73-1.63-1.625-1.63-.896 0-1.624.73-1.624 1.63 0 .895.728 1.62 1.624 1.62.895 0 1.625-.725 1.625-1.62z"/><circle cx="22.058" cy="37.909" r="1.624"/><path d="M24.895 36.74c.897 0 1.626-.73 1.626-1.624 0-.896-.728-1.625-1.625-1.625-.895 0-1.624.73-1.624 1.626 0 .895.73 1.623 1.625 1.623zM13.96 47.544c0-.896-.73-1.625-1.626-1.625-.894 0-1.625.728-1.625 1.624 0 .896.73 1.624 1.624 1.624.896 0 1.625-.728 1.625-1.624z"/><circle cx="14.754" cy="52.518" r="1.624"/><path d="M8.87 49.712c-.894 0-1.624.73-1.624 1.627 0 .892.73 1.62 1.625 1.62.897 0 1.626-.73 1.626-1.62 0-.9-.73-1.628-1.625-1.628zM20.87 51.56c-.897 0-1.625.73-1.625 1.628 0 .894.73 1.62 1.624 1.62.895 0 1.624-.727 1.624-1.62 0-.898-.73-1.628-1.625-1.628zM35.387 16.902c-.894 0-1.622.73-1.622 1.626 0 .895.728 1.624 1.622 1.624.896 0 1.626-.73 1.626-1.624 0-.896-.73-1.626-1.626-1.626zM46.888 18.255c0 .895.73 1.623 1.624 1.623.896 0 1.626-.73 1.626-1.623 0-.896-.73-1.625-1.626-1.625-.895 0-1.624.728-1.624 1.625z"/><circle cx="44.917" cy="21.583" r="1.625"/><path d="M49.124 25.714c.897 0 1.627-.73 1.627-1.624s-.728-1.626-1.626-1.626c-.894 0-1.622.73-1.622 1.626s.728 1.624 1.622 1.624zM49.38 28.32c-.896 0-1.624.73-1.624 1.626 0 .895.728 1.624 1.623 1.624s1.625-.73 1.625-1.624c0-.896-.73-1.626-1.626-1.626z"/><circle cx="45.299" cy="27.14" r="1.624"/><path d="M41.538 26.258c.896 0 1.626-.73 1.626-1.624 0-.896-.73-1.625-1.626-1.625-.895 0-1.624.728-1.624 1.624 0 .894.73 1.624 1.624 1.624z"/></g></g></svg>